<mxfile host="65bd71144e" scale="1" border="0" disableSvgWarning="true">
    <diagram id="5irtiVY76B5kkcP0oITd" name="Base DF MUD V3">
        <mxGraphModel dx="2647" dy="1636" grid="1" gridSize="10" guides="1" tooltips="1" connect="1" arrows="1" fold="1" page="1" pageScale="1" pageWidth="1100" pageHeight="850" background="#1A1A1A" math="1" shadow="0">
            <root>
                <mxCell id="0"/>
                <mxCell id="1" parent="0"/>
                <mxCell id="techStack" value="Tech Stack" style="group;rounded=1;" parent="1" vertex="1">
                    <mxGeometry x="10" y="-30" width="550" height="1160" as="geometry"/>
                </mxCell>
                <mxCell id="mud" value="MUD Framework" style="ellipse;fillColor=#DAE8FC;strokeColor=#6C8EBF;rounded=1;" parent="techStack" vertex="1">
                    <mxGeometry x="10" y="10" width="180" height="30" as="geometry"/>
                </mxCell>
                <mxCell id="react" value="React" style="ellipse;fillColor=#DAE8FC;strokeColor=#6C8EBF;rounded=1;" parent="techStack" vertex="1">
                    <mxGeometry x="10" y="50" width="80" height="30" as="geometry"/>
                </mxCell>
                <mxCell id="tailwind" value="Tailwind CSS" style="ellipse;fillColor=#DAE8FC;strokeColor=#6C8EBF;rounded=1;" parent="techStack" vertex="1">
                    <mxGeometry x="100" y="50" width="80" height="30" as="geometry"/>
                </mxCell>
                <mxCell id="38" value="Base&lt;br&gt;DF_MUD v3" style="rhombus;whiteSpace=wrap;html=1;rounded=1;" parent="techStack" vertex="1">
                    <mxGeometry x="190" y="10" width="110" height="80" as="geometry"/>
                </mxCell>
                <mxCell id="foundry" value="Foundry" style="rectangle;fillColor=#d5e8d4;strokeColor=#82b366;rounded=1;" parent="techStack" vertex="1">
                    <mxGeometry x="40" y="220" width="180" height="30" as="geometry"/>
                </mxCell>
                <mxCell id="quasar" value="Quasar" style="rectangle;fillColor=#d5e8d4;strokeColor=#82b366;rounded=1;" parent="techStack" vertex="1">
                    <mxGeometry x="40" y="260" width="180" height="30" as="geometry"/>
                </mxCell>
                <mxCell id="spacetimeRip" value="Spacetime Rip" style="rectangle;fillColor=#d5e8d4;strokeColor=#82b366;rounded=1;" parent="techStack" vertex="1">
                    <mxGeometry x="40" y="300" width="180" height="30" as="geometry"/>
                </mxCell>
                <mxCell id="11" value="Silver Mine" style="rectangle;fillColor=#d5e8d4;strokeColor=#82b366;rounded=1;" parent="techStack" vertex="1">
                    <mxGeometry x="40" y="180" width="180" height="30" as="geometry"/>
                </mxCell>
                <mxCell id="12" value="Planet" style="rectangle;fillColor=#d5e8d4;strokeColor=#82b366;rounded=1;" parent="techStack" vertex="1">
                    <mxGeometry x="40" y="140" width="180" height="30" as="geometry"/>
                </mxCell>
                <mxCell id="14" value="Energy" style="ellipse;whiteSpace=wrap;html=1;aspect=fixed;rounded=1;fillColor=#dae8fc;strokeColor=#6c8ebf;spacingBottom=-20;" parent="techStack" vertex="1">
                    <mxGeometry x="60" y="230" width="10" height="10" as="geometry"/>
                </mxCell>
                <mxCell id="15" value="Energy" style="ellipse;whiteSpace=wrap;html=1;aspect=fixed;rounded=1;fillColor=#dae8fc;strokeColor=#6c8ebf;spacingBottom=-20;" parent="techStack" vertex="1">
                    <mxGeometry x="60" y="190" width="10" height="10" as="geometry"/>
                </mxCell>
                <mxCell id="16" value="Energy" style="ellipse;whiteSpace=wrap;html=1;aspect=fixed;rounded=1;fillColor=#dae8fc;strokeColor=#6c8ebf;spacingBottom=-20;" parent="techStack" vertex="1">
                    <mxGeometry x="60" y="150" width="10" height="10" as="geometry"/>
                </mxCell>
                <mxCell id="18" value="Energy" style="ellipse;whiteSpace=wrap;html=1;aspect=fixed;rounded=1;fillColor=#dae8fc;strokeColor=#6c8ebf;spacingBottom=-20;" parent="techStack" vertex="1">
                    <mxGeometry x="60" y="310" width="10" height="10" as="geometry"/>
                </mxCell>
                <mxCell id="20" value="Silver" style="ellipse;whiteSpace=wrap;html=1;aspect=fixed;rounded=1;fillColor=#fff2cc;strokeColor=#d6b656;spacingBottom=-20;" parent="techStack" vertex="1">
                    <mxGeometry x="190" y="189" width="10" height="10" as="geometry"/>
                </mxCell>
                <mxCell id="22" value="Artifacts" style="ellipse;whiteSpace=wrap;html=1;aspect=fixed;rounded=1;fillColor=#d0cee2;strokeColor=#56517e;spacingBottom=-20;" parent="techStack" vertex="1">
                    <mxGeometry x="190" y="230" width="10" height="10" as="geometry"/>
                </mxCell>
                <mxCell id="NPDjuyqZwq4U-HTnj_AC-95" value="Planet Bonus" style="group;rounded=1;spacingTop=-20;fontColor=light-dark(#ffffff, #ededed);strokeWidth=5;fontSize=19;" parent="techStack" vertex="1">
                    <mxGeometry x="40" y="370" width="180" height="200" as="geometry"/>
                </mxCell>
                <mxCell id="NPDjuyqZwq4U-HTnj_AC-96" value="Population Cap" style="hexagon;fillColor=#ffe6cc;strokeColor=#d79b00;rounded=1;" parent="NPDjuyqZwq4U-HTnj_AC-95" vertex="1">
                    <mxGeometry x="9" y="10" width="162" height="30" as="geometry"/>
                </mxCell>
                <mxCell id="NPDjuyqZwq4U-HTnj_AC-97" value="Population Growth" style="hexagon;fillColor=#ffe6cc;strokeColor=#d79b00;rounded=1;" parent="NPDjuyqZwq4U-HTnj_AC-95" vertex="1">
                    <mxGeometry x="9" y="50" width="162" height="30" as="geometry"/>
                </mxCell>
                <mxCell id="NPDjuyqZwq4U-HTnj_AC-98" value="Defense" style="hexagon;fillColor=#ffe6cc;strokeColor=#d79b00;rounded=1;" parent="NPDjuyqZwq4U-HTnj_AC-95" vertex="1">
                    <mxGeometry x="9" y="90" width="162" height="30" as="geometry"/>
                </mxCell>
                <mxCell id="NPDjuyqZwq4U-HTnj_AC-99" value="Range" style="hexagon;fillColor=#ffe6cc;strokeColor=#d79b00;rounded=1;" parent="NPDjuyqZwq4U-HTnj_AC-95" vertex="1">
                    <mxGeometry x="9" y="130" width="162" height="30" as="geometry"/>
                </mxCell>
                <mxCell id="NPDjuyqZwq4U-HTnj_AC-100" value="Speed" style="hexagon;fillColor=#ffe6cc;strokeColor=#d79b00;rounded=1;" parent="NPDjuyqZwq4U-HTnj_AC-95" vertex="1">
                    <mxGeometry x="9" y="170" width="162" height="30" as="geometry"/>
                </mxCell>
                <mxCell id="31" value="Planet Upgrades" style="group;rounded=1;spacingTop=-20;fontColor=light-dark(#ffffff, #ededed);strokeWidth=5;fontSize=19;" parent="techStack" vertex="1">
                    <mxGeometry x="40" y="600" width="180" height="520" as="geometry"/>
                </mxCell>
                <mxCell id="33" value="#0 Defense" style="hexagon;fillColor=#fff2cc;strokeColor=#d6b656;rounded=1;" parent="31" vertex="1">
                    <mxGeometry x="9" y="10" width="162" height="30" as="geometry"/>
                </mxCell>
                <mxCell id="34" value="#1 Range" style="hexagon;fillColor=#fff2cc;strokeColor=#d6b656;rounded=1;" parent="31" vertex="1">
                    <mxGeometry x="9" y="50" width="162" height="30" as="geometry"/>
                </mxCell>
                <mxCell id="35" value="#2 Speed" style="hexagon;fillColor=#fff2cc;strokeColor=#d6b656;rounded=1;" parent="31" vertex="1">
                    <mxGeometry x="9" y="90" width="162" height="30" as="geometry"/>
                </mxCell>
                <mxCell id="8byimN1MKcKNS9rw0Z8--65" value="Marketplace page" style="group;rounded=1;spacingTop=-20;fontColor=light-dark(#ffffff, #ededed);strokeWidth=5;fontSize=19;" parent="31" vertex="1">
                    <mxGeometry y="320" width="180" height="200" as="geometry"/>
                </mxCell>
                <mxCell id="8byimN1MKcKNS9rw0Z8--66" value="use same connection wallet kit" style="hexagon;fillColor=#d0cee2;strokeColor=#56517e;rounded=1;" parent="8byimN1MKcKNS9rw0Z8--65" vertex="1">
                    <mxGeometry x="9" y="10" width="162" height="30" as="geometry"/>
                </mxCell>
                <mxCell id="8byimN1MKcKNS9rw0Z8--67" value="as componnent ready for&#xa; game client pane" style="hexagon;fillColor=#d0cee2;strokeColor=#56517e;rounded=1;" parent="8byimN1MKcKNS9rw0Z8--65" vertex="1">
                    <mxGeometry x="9" y="50" width="162" height="30" as="geometry"/>
                </mxCell>
                <mxCell id="8byimN1MKcKNS9rw0Z8--68" value="Gallery view:&#xa;all , owned , on sold" style="hexagon;fillColor=#d0cee2;strokeColor=#56517e;rounded=1;" parent="8byimN1MKcKNS9rw0Z8--65" vertex="1">
                    <mxGeometry x="9" y="90" width="162" height="30" as="geometry"/>
                </mxCell>
                <mxCell id="8byimN1MKcKNS9rw0Z8--69" value="Select able owned :&#xa; transfere to bulk , action sold " style="hexagon;fillColor=#d0cee2;strokeColor=#56517e;rounded=1;" parent="8byimN1MKcKNS9rw0Z8--65" vertex="1">
                    <mxGeometry x="9" y="130" width="162" height="30" as="geometry"/>
                </mxCell>
                <mxCell id="8byimN1MKcKNS9rw0Z8--70" value="Gallery filter panel : &#xa;Art type , Biome , Rarity" style="hexagon;fillColor=#d0cee2;strokeColor=#56517e;rounded=1;" parent="8byimN1MKcKNS9rw0Z8--65" vertex="1">
                    <mxGeometry x="9" y="170" width="162" height="30" as="geometry"/>
                </mxCell>
                <mxCell id="54" value="Biomes" style="group;rounded=1;spacingTop=-20;fontColor=light-dark(#ffffff, #ededed);strokeWidth=5;fontSize=19;fontStyle=1" parent="techStack" vertex="1">
                    <mxGeometry x="250" y="370" width="150" height="370" as="geometry"/>
                </mxCell>
                <mxCell id="55" value="" style="edgeStyle=none;rounded=1;html=1;" parent="54" source="56" target="59" edge="1">
                    <mxGeometry relative="1" as="geometry"/>
                </mxCell>
                <mxCell id="56" value="Ocean" style="hexagon;fillColor=#f5f5f5;strokeColor=#666666;rounded=1;fontColor=#333333;" parent="54" vertex="1">
                    <mxGeometry x="7.5" y="10" width="135" height="30" as="geometry"/>
                </mxCell>
                <mxCell id="57" value="Forest" style="hexagon;fillColor=#f5f5f5;strokeColor=#666666;rounded=1;fontColor=#333333;" parent="54" vertex="1">
                    <mxGeometry x="7.5" y="50" width="135" height="30" as="geometry"/>
                </mxCell>
                <mxCell id="58" value="Grassland" style="hexagon;fillColor=#f5f5f5;strokeColor=#666666;rounded=1;fontColor=#333333;" parent="54" vertex="1">
                    <mxGeometry x="7.5" y="90" width="135" height="30" as="geometry"/>
                </mxCell>
                <mxCell id="59" value="Tundra" style="hexagon;fillColor=#f5f5f5;strokeColor=#666666;rounded=1;fontColor=#333333;" parent="54" vertex="1">
                    <mxGeometry x="7.5" y="130" width="135" height="30" as="geometry"/>
                </mxCell>
                <mxCell id="60" value="Swamp" style="hexagon;fillColor=#f5f5f5;strokeColor=#666666;rounded=1;fontColor=#333333;" parent="54" vertex="1">
                    <mxGeometry x="7.5" y="170" width="135" height="30" as="geometry"/>
                </mxCell>
                <mxCell id="61" value="Desert" style="hexagon;fillColor=#f5f5f5;strokeColor=#666666;rounded=1;fontColor=#333333;" parent="54" vertex="1">
                    <mxGeometry x="7.5" y="210" width="135" height="30" as="geometry"/>
                </mxCell>
                <mxCell id="62" value="Ice" style="hexagon;fillColor=#f5f5f5;strokeColor=#666666;rounded=1;fontColor=#333333;" parent="54" vertex="1">
                    <mxGeometry x="7.5" y="250" width="135" height="30" as="geometry"/>
                </mxCell>
                <mxCell id="63" value="Wasteland" style="hexagon;fillColor=#f5f5f5;strokeColor=#666666;rounded=1;fontColor=#333333;" parent="54" vertex="1">
                    <mxGeometry x="7.5" y="290" width="135" height="30" as="geometry"/>
                </mxCell>
                <mxCell id="64" value="Lava" style="hexagon;fillColor=#f5f5f5;strokeColor=#666666;rounded=1;fontColor=#333333;" parent="54" vertex="1">
                    <mxGeometry x="7.5" y="330" width="135" height="30" as="geometry"/>
                </mxCell>
                <mxCell id="65" value="Corrupted" style="hexagon;fillColor=#f5f5f5;strokeColor=#666666;rounded=1;fontColor=#333333;" parent="54" vertex="1">
                    <mxGeometry x="7.5" y="370" width="135" height="30" as="geometry"/>
                </mxCell>
                <mxCell id="SrigIQe8zT1XsT5fDAGr-65" style="edgeStyle=orthogonalEdgeStyle;rounded=1;orthogonalLoop=1;strokeColor=#FFFFFF;strokeWidth=7;" parent="techStack" edge="1">
                    <mxGeometry relative="1" as="geometry">
                        <Array as="points">
                            <mxPoint x="220" y="240"/>
                            <mxPoint x="435" y="240"/>
                        </Array>
                        <mxPoint x="220" y="240" as="sourcePoint"/>
                        <mxPoint x="435" y="270" as="targetPoint"/>
                    </mxGeometry>
                </mxCell>
                <mxCell id="SrigIQe8zT1XsT5fDAGr-66" value="Prospect &amp;amp; Find" style="edgeLabel;html=1;align=center;verticalAlign=middle;resizable=0;points=[];rounded=1;" parent="SrigIQe8zT1XsT5fDAGr-65" vertex="1" connectable="0">
                    <mxGeometry x="-0.1393" y="4" relative="1" as="geometry">
                        <mxPoint as="offset"/>
                    </mxGeometry>
                </mxCell>
                <mxCell id="tMf0LBVsmjufztRibNKT-65" value="Three.js" style="ellipse;fillColor=#DAE8FC;strokeColor=#6C8EBF;rounded=1;" parent="techStack" vertex="1">
                    <mxGeometry x="50" y="80" width="80" height="30" as="geometry"/>
                </mxCell>
                <mxCell id="4" value="Silver Withdraw for Player&#xa; ScoreBoard" style="hexagon;fillColor=#dae8fc;strokeColor=#6c8ebf;rounded=1;" parent="1" vertex="1">
                    <mxGeometry x="-220" y="270" width="180" height="30" as="geometry"/>
                </mxCell>
                <mxCell id="5" value="Artifact portal &#xa;Game Contract &lt;&gt; Wallet" style="hexagon;fillColor=#dae8fc;strokeColor=#6c8ebf;rounded=1;" parent="1" vertex="1">
                    <mxGeometry x="-220" y="310" width="180" height="30" as="geometry"/>
                </mxCell>
                <mxCell id="23" style="edgeStyle=orthogonalEdgeStyle;rounded=1;orthogonalLoop=1;strokeColor=#FFFFFF;strokeWidth=7;entryX=1;entryY=0.5;entryDx=0;entryDy=0;exitX=0;exitY=0.5;exitDx=0;exitDy=0;" parent="1" source="spacetimeRip" target="4" edge="1">
                    <mxGeometry relative="1" as="geometry">
                        <Array as="points">
                            <mxPoint x="50" y="285"/>
                        </Array>
                        <mxPoint x="50" y="245" as="sourcePoint"/>
                        <mxPoint x="455" y="190" as="targetPoint"/>
                    </mxGeometry>
                </mxCell>
                <mxCell id="artifacts" value="Artifacts" style="group;rounded=1;fontColor=#FFFFFF;fontSize=19;spacingTop=-20;" parent="1" vertex="1">
                    <mxGeometry x="420" y="240" width="200" height="570" as="geometry"/>
                </mxCell>
                <mxCell id="wormhole" value="#5 Wormhole" style="hexagon;fillColor=#d0cee2;strokeColor=#56517e;rounded=1;fontSize=12;" parent="artifacts" vertex="1">
                    <mxGeometry x="10" y="90" width="180" height="30" as="geometry"/>
                </mxCell>
                <mxCell id="photoidCannon" value="#4 Bloom Filter" style="hexagon;fillColor=#d0cee2;strokeColor=#56517e;rounded=1;" parent="artifacts" vertex="1">
                    <mxGeometry x="10" y="50" width="180" height="30" as="geometry"/>
                </mxCell>
                <mxCell id="bloomFilter" value="#6 Photoid Cannon" style="hexagon;fillColor=#d0cee2;strokeColor=#56517e;rounded=1;" parent="artifacts" vertex="1">
                    <mxGeometry x="10" y="130" width="180" height="30" as="geometry"/>
                </mxCell>
                <mxCell id="blackDomain" value="#1 Pink Bomb" style="hexagon;fillColor=#d0cee2;strokeColor=#56517e;rounded=1;" parent="artifacts" vertex="1">
                    <mxGeometry x="10" y="10" width="180" height="30" as="geometry"/>
                </mxCell>
                <mxCell id="NPDjuyqZwq4U-HTnj_AC-72" value="Rarity" style="group;rounded=1;spacingTop=-20;fontColor=light-dark(#ffffff, #ededed);strokeWidth=5;fontSize=19;" parent="artifacts" vertex="1">
                    <mxGeometry x="10" y="190" width="180" height="200" as="geometry"/>
                </mxCell>
                <mxCell id="NPDjuyqZwq4U-HTnj_AC-74" value="#1 Common" style="hexagon;fillColor=#d0cee2;strokeColor=#56517e;rounded=1;" parent="NPDjuyqZwq4U-HTnj_AC-72" vertex="1">
                    <mxGeometry x="9" y="10" width="162" height="30" as="geometry"/>
                </mxCell>
                <mxCell id="NPDjuyqZwq4U-HTnj_AC-75" value="#2 Rare" style="hexagon;fillColor=#d0cee2;strokeColor=#56517e;rounded=1;" parent="NPDjuyqZwq4U-HTnj_AC-72" vertex="1">
                    <mxGeometry x="9" y="50" width="162" height="30" as="geometry"/>
                </mxCell>
                <mxCell id="NPDjuyqZwq4U-HTnj_AC-76" value="#3 Epic" style="hexagon;fillColor=#d0cee2;strokeColor=#56517e;rounded=1;" parent="NPDjuyqZwq4U-HTnj_AC-72" vertex="1">
                    <mxGeometry x="9" y="90" width="162" height="30" as="geometry"/>
                </mxCell>
                <mxCell id="NPDjuyqZwq4U-HTnj_AC-77" value="#4 Legendary" style="hexagon;fillColor=#d0cee2;strokeColor=#56517e;rounded=1;" parent="NPDjuyqZwq4U-HTnj_AC-72" vertex="1">
                    <mxGeometry x="9" y="130" width="162" height="30" as="geometry"/>
                </mxCell>
                <mxCell id="NPDjuyqZwq4U-HTnj_AC-78" value="#5 Mythic" style="hexagon;fillColor=#d0cee2;strokeColor=#56517e;rounded=1;" parent="NPDjuyqZwq4U-HTnj_AC-72" vertex="1">
                    <mxGeometry x="9" y="170" width="162" height="30" as="geometry"/>
                </mxCell>
                <mxCell id="SrigIQe8zT1XsT5fDAGr-68" value="Guilds" style="swimlane;fontStyle=0;childLayout=stackLayout;horizontal=1;startSize=30;horizontalStack=0;resizeParent=1;resizeParentMax=0;resizeLast=0;collapsible=1;marginBottom=0;whiteSpace=wrap;html=1;" parent="1" vertex="1">
                    <mxGeometry x="390" width="140" height="140" as="geometry"/>
                </mxCell>
                <mxCell id="SrigIQe8zT1XsT5fDAGr-69" value="Grant Role Delegation&amp;nbsp;" style="text;strokeColor=none;fillColor=none;align=left;verticalAlign=middle;spacingLeft=4;spacingRight=4;overflow=hidden;points=[[0,0.5],[1,0.5]];portConstraint=eastwest;rotatable=0;whiteSpace=wrap;html=1;fontColor=light-dark(#ffffff, #ededed);" parent="SrigIQe8zT1XsT5fDAGr-68" vertex="1">
                    <mxGeometry y="30" width="140" height="30" as="geometry"/>
                </mxCell>
                <mxCell id="SrigIQe8zT1XsT5fDAGr-70" value="Transfere Ownership" style="text;strokeColor=none;fillColor=none;align=left;verticalAlign=middle;spacingLeft=4;spacingRight=4;overflow=hidden;points=[[0,0.5],[1,0.5]];portConstraint=eastwest;rotatable=0;whiteSpace=wrap;html=1;fontColor=light-dark(#ffffff, #ededed);" parent="SrigIQe8zT1XsT5fDAGr-68" vertex="1">
                    <mxGeometry y="60" width="140" height="30" as="geometry"/>
                </mxCell>
                <mxCell id="SrigIQe8zT1XsT5fDAGr-71" value="Without Guild extension about total members limited by Guild lvl" style="text;strokeColor=none;fillColor=none;align=left;verticalAlign=middle;spacingLeft=4;spacingRight=4;overflow=hidden;points=[[0,0.5],[1,0.5]];portConstraint=eastwest;rotatable=0;whiteSpace=wrap;html=1;fontColor=light-dark(#ffffff, #ededed);" parent="SrigIQe8zT1XsT5fDAGr-68" vertex="1">
                    <mxGeometry y="90" width="140" height="50" as="geometry"/>
                </mxCell>
                <mxCell id="SrigIQe8zT1XsT5fDAGr-72" value="AI Sophons" style="swimlane;fontStyle=0;childLayout=stackLayout;horizontal=1;startSize=30;horizontalStack=0;resizeParent=1;resizeParentMax=0;resizeLast=0;collapsible=1;marginBottom=0;whiteSpace=wrap;html=1;" parent="1" vertex="1">
                    <mxGeometry x="570" width="140" height="120" as="geometry"/>
                </mxCell>
                <mxCell id="SrigIQe8zT1XsT5fDAGr-73" value="AI Assistant - chatbot" style="text;strokeColor=none;fillColor=none;align=left;verticalAlign=middle;spacingLeft=4;spacingRight=4;overflow=hidden;points=[[0,0.5],[1,0.5]];portConstraint=eastwest;rotatable=0;whiteSpace=wrap;html=1;fontColor=light-dark(#ffffff, #ededed);" parent="SrigIQe8zT1XsT5fDAGr-72" vertex="1">
                    <mxGeometry y="30" width="140" height="30" as="geometry"/>
                </mxCell>
                <mxCell id="SrigIQe8zT1XsT5fDAGr-74" value="AI Agent - Client Requesting with selected planets and wait for json format answer - client executor" style="text;strokeColor=none;fillColor=none;align=left;verticalAlign=middle;spacingLeft=4;spacingRight=4;overflow=hidden;points=[[0,0.5],[1,0.5]];portConstraint=eastwest;rotatable=0;whiteSpace=wrap;html=1;fontColor=light-dark(#ffffff, #ededed);" parent="SrigIQe8zT1XsT5fDAGr-72" vertex="1">
                    <mxGeometry y="60" width="140" height="60" as="geometry"/>
                </mxCell>
                <mxCell id="SrigIQe8zT1XsT5fDAGr-76" value="Current Functions DarkForest_MUD BASE ROUND&amp;nbsp;&lt;br&gt;DF_MUD V3" style="text;html=1;align=center;verticalAlign=middle;whiteSpace=wrap;rounded=0;fontColor=light-dark(#ffffff, #ededed);fontSize=22;fontStyle=1" parent="1" vertex="1">
                    <mxGeometry x="10" y="-160" width="700" height="80" as="geometry"/>
                </mxCell>
                <mxCell id="MGeNxELb8QTI1beT-WTR-72" value="" style="group" parent="1" vertex="1" connectable="0">
                    <mxGeometry x="-1050" y="980" width="1000" height="1000" as="geometry"/>
                </mxCell>
                <mxCell id="MGeNxELb8QTI1beT-WTR-65" value="Maximum Radius" style="ellipse;whiteSpace=wrap;html=1;spacingTop=0;fontSize=22;fontStyle=1;strokeWidth=5;spacingBottom=900;" parent="MGeNxELb8QTI1beT-WTR-72" vertex="1">
                    <mxGeometry width="1000" height="1000" as="geometry"/>
                </mxCell>
                <mxCell id="MGeNxELb8QTI1beT-WTR-66" value="Spawn Area&lt;div&gt;lvl 0-4&lt;/div&gt;&lt;div&gt;Nebula , Space&lt;br&gt;&lt;br&gt;&lt;/div&gt;&lt;div&gt;&lt;br&gt;&lt;/div&gt;" style="ellipse;whiteSpace=wrap;html=1;fillColor=#007FFF;strokeColor=#6c8ebf;spacingTop=0;spacingBottom=600;fontSize=22;fontStyle=1" parent="MGeNxELb8QTI1beT-WTR-72" vertex="1">
                    <mxGeometry x="134" y="125" width="750" height="750" as="geometry"/>
                </mxCell>
                <mxCell id="MGeNxELb8QTI1beT-WTR-67" value="&lt;div&gt;&lt;br&gt;&lt;/div&gt;Shrink Area&lt;br&gt;&lt;span style=&quot;font-weight: normal;&quot;&gt;lvl 0-9&lt;br&gt;&lt;br&gt;&lt;/span&gt;&lt;div&gt;&lt;span style=&quot;font-weight: normal;&quot;&gt;Nebula,&amp;nbsp; Space ,&amp;nbsp;&lt;br&gt;Deep Space , Corrupted space ,&amp;nbsp;&lt;/span&gt;&lt;/div&gt;" style="ellipse;whiteSpace=wrap;html=1;fillColor=#fff2cc;strokeColor=#d6b656;spacingBottom=400;fontSize=22;fontStyle=1" parent="MGeNxELb8QTI1beT-WTR-72" vertex="1">
                    <mxGeometry x="233" y="222.5" width="555" height="555" as="geometry"/>
                </mxCell>
                <mxCell id="MGeNxELb8QTI1beT-WTR-70" value="" style="shape=flexArrow;endArrow=classic;startArrow=classic;html=1;startWidth=0;startSize=7.976190476190476;entryX=0.517;entryY=0.518;entryDx=0;entryDy=0;entryPerimeter=0;exitX=1.004;exitY=0.515;exitDx=0;exitDy=0;exitPerimeter=0;fillColor=none;endWidth=80.74074074074073;endSize=17.362962962962964;width=5.555555555555555;fontSize=8;" parent="MGeNxELb8QTI1beT-WTR-72" source="MGeNxELb8QTI1beT-WTR-67" edge="1">
                    <mxGeometry width="100" height="100" relative="1" as="geometry">
                        <mxPoint x="777.9128367415062" y="490.6618573487708" as="sourcePoint"/>
                        <mxPoint x="510.005" y="509.9899999999998" as="targetPoint"/>
                    </mxGeometry>
                </mxCell>
                <mxCell id="MGeNxELb8QTI1beT-WTR-71" value="Shrink&lt;span style=&quot;background-color: light-dark(#ffffff, var(--ge-dark-color, #121212));&quot;&gt;&amp;nbsp;inner area per tick&lt;/span&gt;" style="edgeLabel;html=1;align=center;verticalAlign=middle;resizable=0;points=[];rotation=0;textOpacity=70;fontSize=16;" parent="MGeNxELb8QTI1beT-WTR-70" vertex="1" connectable="0">
                    <mxGeometry x="0.1505" y="-2" relative="1" as="geometry">
                        <mxPoint x="41" y="-17" as="offset"/>
                    </mxGeometry>
                </mxCell>
            </root>
        </mxGraphModel>
    </diagram>
    <diagram name="Base DF MUD V4" id="qi9AiscXyE7ZhiVMkn2A">
        <mxGraphModel dx="2183" dy="1400" grid="1" gridSize="10" guides="1" tooltips="1" connect="1" arrows="1" fold="1" page="1" pageScale="1" pageWidth="1100" pageHeight="850" background="#1A1A1A" math="1" shadow="0">
            <root>
                <mxCell id="mezcCVU2EaI2xSkBNxZr-0"/>
                <mxCell id="mezcCVU2EaI2xSkBNxZr-1" parent="mezcCVU2EaI2xSkBNxZr-0"/>
                <mxCell id="mezcCVU2EaI2xSkBNxZr-2" value="Tech Stack" style="group;rounded=1;" parent="mezcCVU2EaI2xSkBNxZr-1" vertex="1">
                    <mxGeometry x="10" y="-30" width="550" height="1160" as="geometry"/>
                </mxCell>
                <mxCell id="mezcCVU2EaI2xSkBNxZr-3" value="MUD Framework" style="ellipse;fillColor=#DAE8FC;strokeColor=#6C8EBF;rounded=1;" parent="mezcCVU2EaI2xSkBNxZr-2" vertex="1">
                    <mxGeometry x="10" y="10" width="180" height="30" as="geometry"/>
                </mxCell>
                <mxCell id="mezcCVU2EaI2xSkBNxZr-4" value="React" style="ellipse;fillColor=#DAE8FC;strokeColor=#6C8EBF;rounded=1;" parent="mezcCVU2EaI2xSkBNxZr-2" vertex="1">
                    <mxGeometry x="10" y="50" width="80" height="30" as="geometry"/>
                </mxCell>
                <mxCell id="mezcCVU2EaI2xSkBNxZr-5" value="Tailwind CSS" style="ellipse;fillColor=#DAE8FC;strokeColor=#6C8EBF;rounded=1;" parent="mezcCVU2EaI2xSkBNxZr-2" vertex="1">
                    <mxGeometry x="100" y="50" width="80" height="30" as="geometry"/>
                </mxCell>
                <mxCell id="mezcCVU2EaI2xSkBNxZr-6" value="Base&lt;br&gt;DF_MUD v4" style="rhombus;whiteSpace=wrap;html=1;rounded=1;" parent="mezcCVU2EaI2xSkBNxZr-2" vertex="1">
                    <mxGeometry x="190" y="10" width="110" height="80" as="geometry"/>
                </mxCell>
                <mxCell id="mezcCVU2EaI2xSkBNxZr-7" value="Foundry" style="rectangle;fillColor=#d5e8d4;strokeColor=#82b366;rounded=1;" parent="mezcCVU2EaI2xSkBNxZr-2" vertex="1">
                    <mxGeometry x="40" y="220" width="180" height="30" as="geometry"/>
                </mxCell>
                <mxCell id="mezcCVU2EaI2xSkBNxZr-8" value="Quasar" style="rectangle;fillColor=#d5e8d4;strokeColor=#82b366;rounded=1;" parent="mezcCVU2EaI2xSkBNxZr-2" vertex="1">
                    <mxGeometry x="40" y="260" width="180" height="30" as="geometry"/>
                </mxCell>
                <mxCell id="mezcCVU2EaI2xSkBNxZr-9" value="Spacetime Rip" style="rectangle;fillColor=#d5e8d4;strokeColor=#82b366;rounded=1;" parent="mezcCVU2EaI2xSkBNxZr-2" vertex="1">
                    <mxGeometry x="40" y="300" width="180" height="30" as="geometry"/>
                </mxCell>
                <mxCell id="mezcCVU2EaI2xSkBNxZr-10" value="Silver Mine" style="rectangle;fillColor=#d5e8d4;strokeColor=#82b366;rounded=1;" parent="mezcCVU2EaI2xSkBNxZr-2" vertex="1">
                    <mxGeometry x="40" y="180" width="180" height="30" as="geometry"/>
                </mxCell>
                <mxCell id="mezcCVU2EaI2xSkBNxZr-11" value="Planet" style="rectangle;fillColor=#d5e8d4;strokeColor=#82b366;rounded=1;" parent="mezcCVU2EaI2xSkBNxZr-2" vertex="1">
                    <mxGeometry x="40" y="140" width="180" height="30" as="geometry"/>
                </mxCell>
                <mxCell id="mezcCVU2EaI2xSkBNxZr-12" value="Energy" style="ellipse;whiteSpace=wrap;html=1;aspect=fixed;rounded=1;fillColor=#dae8fc;strokeColor=#6c8ebf;spacingBottom=-20;" parent="mezcCVU2EaI2xSkBNxZr-2" vertex="1">
                    <mxGeometry x="60" y="230" width="10" height="10" as="geometry"/>
                </mxCell>
                <mxCell id="mezcCVU2EaI2xSkBNxZr-13" value="Energy" style="ellipse;whiteSpace=wrap;html=1;aspect=fixed;rounded=1;fillColor=#dae8fc;strokeColor=#6c8ebf;spacingBottom=-20;" parent="mezcCVU2EaI2xSkBNxZr-2" vertex="1">
                    <mxGeometry x="60" y="190" width="10" height="10" as="geometry"/>
                </mxCell>
                <mxCell id="mezcCVU2EaI2xSkBNxZr-14" value="Energy" style="ellipse;whiteSpace=wrap;html=1;aspect=fixed;rounded=1;fillColor=#dae8fc;strokeColor=#6c8ebf;spacingBottom=-20;" parent="mezcCVU2EaI2xSkBNxZr-2" vertex="1">
                    <mxGeometry x="60" y="150" width="10" height="10" as="geometry"/>
                </mxCell>
                <mxCell id="mezcCVU2EaI2xSkBNxZr-15" value="Energy" style="ellipse;whiteSpace=wrap;html=1;aspect=fixed;rounded=1;fillColor=#dae8fc;strokeColor=#6c8ebf;spacingBottom=-20;" parent="mezcCVU2EaI2xSkBNxZr-2" vertex="1">
                    <mxGeometry x="60" y="310" width="10" height="10" as="geometry"/>
                </mxCell>
                <mxCell id="mezcCVU2EaI2xSkBNxZr-16" value="Silver" style="ellipse;whiteSpace=wrap;html=1;aspect=fixed;rounded=1;fillColor=#fff2cc;strokeColor=#d6b656;spacingBottom=-20;" parent="mezcCVU2EaI2xSkBNxZr-2" vertex="1">
                    <mxGeometry x="190" y="189" width="10" height="10" as="geometry"/>
                </mxCell>
                <mxCell id="mezcCVU2EaI2xSkBNxZr-17" value="Artifacts" style="ellipse;whiteSpace=wrap;html=1;aspect=fixed;rounded=1;fillColor=#d0cee2;strokeColor=#56517e;spacingBottom=-20;" parent="mezcCVU2EaI2xSkBNxZr-2" vertex="1">
                    <mxGeometry x="190" y="230" width="10" height="10" as="geometry"/>
                </mxCell>
                <mxCell id="mezcCVU2EaI2xSkBNxZr-18" value="Planet Bonus" style="group;rounded=1;spacingTop=-20;fontColor=light-dark(#ffffff, #ededed);strokeWidth=5;fontSize=19;" parent="mezcCVU2EaI2xSkBNxZr-2" vertex="1">
                    <mxGeometry x="40" y="370" width="180" height="200" as="geometry"/>
                </mxCell>
                <mxCell id="mezcCVU2EaI2xSkBNxZr-19" value="Population Cap" style="hexagon;fillColor=#ffe6cc;strokeColor=#d79b00;rounded=1;" parent="mezcCVU2EaI2xSkBNxZr-18" vertex="1">
                    <mxGeometry x="9" y="10" width="162" height="30" as="geometry"/>
                </mxCell>
                <mxCell id="mezcCVU2EaI2xSkBNxZr-20" value="Population Growth" style="hexagon;fillColor=#ffe6cc;strokeColor=#d79b00;rounded=1;" parent="mezcCVU2EaI2xSkBNxZr-18" vertex="1">
                    <mxGeometry x="9" y="50" width="162" height="30" as="geometry"/>
                </mxCell>
                <mxCell id="mezcCVU2EaI2xSkBNxZr-21" value="Defense" style="hexagon;fillColor=#ffe6cc;strokeColor=#d79b00;rounded=1;" parent="mezcCVU2EaI2xSkBNxZr-18" vertex="1">
                    <mxGeometry x="9" y="90" width="162" height="30" as="geometry"/>
                </mxCell>
                <mxCell id="mezcCVU2EaI2xSkBNxZr-22" value="Range" style="hexagon;fillColor=#ffe6cc;strokeColor=#d79b00;rounded=1;" parent="mezcCVU2EaI2xSkBNxZr-18" vertex="1">
                    <mxGeometry x="9" y="130" width="162" height="30" as="geometry"/>
                </mxCell>
                <mxCell id="mezcCVU2EaI2xSkBNxZr-23" value="Speed" style="hexagon;fillColor=#ffe6cc;strokeColor=#d79b00;rounded=1;" parent="mezcCVU2EaI2xSkBNxZr-18" vertex="1">
                    <mxGeometry x="9" y="170" width="162" height="30" as="geometry"/>
                </mxCell>
                <mxCell id="mezcCVU2EaI2xSkBNxZr-24" value="Planet Upgrades" style="group;rounded=1;spacingTop=-20;fontColor=light-dark(#ffffff, #ededed);strokeWidth=5;fontSize=19;" parent="mezcCVU2EaI2xSkBNxZr-2" vertex="1">
                    <mxGeometry x="40" y="600" width="180" height="370" as="geometry"/>
                </mxCell>
                <mxCell id="mezcCVU2EaI2xSkBNxZr-25" value="#0 Defense" style="hexagon;fillColor=#fff2cc;strokeColor=#d6b656;rounded=1;" parent="mezcCVU2EaI2xSkBNxZr-24" vertex="1">
                    <mxGeometry x="9" y="10" width="162" height="30" as="geometry"/>
                </mxCell>
                <mxCell id="mezcCVU2EaI2xSkBNxZr-26" value="#1 Range" style="hexagon;fillColor=#fff2cc;strokeColor=#d6b656;rounded=1;" parent="mezcCVU2EaI2xSkBNxZr-24" vertex="1">
                    <mxGeometry x="9" y="50" width="162" height="30" as="geometry"/>
                </mxCell>
                <mxCell id="mezcCVU2EaI2xSkBNxZr-27" value="#2 Speed" style="hexagon;fillColor=#fff2cc;strokeColor=#d6b656;rounded=1;" parent="mezcCVU2EaI2xSkBNxZr-24" vertex="1">
                    <mxGeometry x="9" y="90" width="162" height="30" as="geometry"/>
                </mxCell>
                <mxCell id="mezcCVU2EaI2xSkBNxZr-28" value="Biomes" style="group;rounded=1;spacingTop=-20;fontColor=light-dark(#ffffff, #ededed);strokeWidth=5;fontSize=19;fontStyle=1" parent="mezcCVU2EaI2xSkBNxZr-2" vertex="1">
                    <mxGeometry x="250" y="370" width="150" height="370" as="geometry"/>
                </mxCell>
                <mxCell id="mezcCVU2EaI2xSkBNxZr-29" value="" style="edgeStyle=none;rounded=1;html=1;" parent="mezcCVU2EaI2xSkBNxZr-28" source="mezcCVU2EaI2xSkBNxZr-30" target="mezcCVU2EaI2xSkBNxZr-33" edge="1">
                    <mxGeometry relative="1" as="geometry"/>
                </mxCell>
                <mxCell id="mezcCVU2EaI2xSkBNxZr-30" value="Ocean" style="hexagon;fillColor=#f5f5f5;strokeColor=#666666;rounded=1;fontColor=#333333;" parent="mezcCVU2EaI2xSkBNxZr-28" vertex="1">
                    <mxGeometry x="7.5" y="10" width="135" height="30" as="geometry"/>
                </mxCell>
                <mxCell id="mezcCVU2EaI2xSkBNxZr-31" value="Forest" style="hexagon;fillColor=#f5f5f5;strokeColor=#666666;rounded=1;fontColor=#333333;" parent="mezcCVU2EaI2xSkBNxZr-28" vertex="1">
                    <mxGeometry x="7.5" y="50" width="135" height="30" as="geometry"/>
                </mxCell>
                <mxCell id="mezcCVU2EaI2xSkBNxZr-32" value="Grassland" style="hexagon;fillColor=#f5f5f5;strokeColor=#666666;rounded=1;fontColor=#333333;" parent="mezcCVU2EaI2xSkBNxZr-28" vertex="1">
                    <mxGeometry x="7.5" y="90" width="135" height="30" as="geometry"/>
                </mxCell>
                <mxCell id="mezcCVU2EaI2xSkBNxZr-33" value="Tundra" style="hexagon;fillColor=#f5f5f5;strokeColor=#666666;rounded=1;fontColor=#333333;" parent="mezcCVU2EaI2xSkBNxZr-28" vertex="1">
                    <mxGeometry x="7.5" y="130" width="135" height="30" as="geometry"/>
                </mxCell>
                <mxCell id="mezcCVU2EaI2xSkBNxZr-34" value="Swamp" style="hexagon;fillColor=#f5f5f5;strokeColor=#666666;rounded=1;fontColor=#333333;" parent="mezcCVU2EaI2xSkBNxZr-28" vertex="1">
                    <mxGeometry x="7.5" y="170" width="135" height="30" as="geometry"/>
                </mxCell>
                <mxCell id="mezcCVU2EaI2xSkBNxZr-35" value="Desert" style="hexagon;fillColor=#f5f5f5;strokeColor=#666666;rounded=1;fontColor=#333333;" parent="mezcCVU2EaI2xSkBNxZr-28" vertex="1">
                    <mxGeometry x="7.5" y="210" width="135" height="30" as="geometry"/>
                </mxCell>
                <mxCell id="mezcCVU2EaI2xSkBNxZr-36" value="Ice" style="hexagon;fillColor=#f5f5f5;strokeColor=#666666;rounded=1;fontColor=#333333;" parent="mezcCVU2EaI2xSkBNxZr-28" vertex="1">
                    <mxGeometry x="7.5" y="250" width="135" height="30" as="geometry"/>
                </mxCell>
                <mxCell id="mezcCVU2EaI2xSkBNxZr-37" value="Wasteland" style="hexagon;fillColor=#f5f5f5;strokeColor=#666666;rounded=1;fontColor=#333333;" parent="mezcCVU2EaI2xSkBNxZr-28" vertex="1">
                    <mxGeometry x="7.5" y="290" width="135" height="30" as="geometry"/>
                </mxCell>
                <mxCell id="mezcCVU2EaI2xSkBNxZr-38" value="Lava" style="hexagon;fillColor=#f5f5f5;strokeColor=#666666;rounded=1;fontColor=#333333;" parent="mezcCVU2EaI2xSkBNxZr-28" vertex="1">
                    <mxGeometry x="7.5" y="330" width="135" height="30" as="geometry"/>
                </mxCell>
                <mxCell id="mezcCVU2EaI2xSkBNxZr-39" value="Corrupted" style="hexagon;fillColor=#f5f5f5;strokeColor=#666666;rounded=1;fontColor=#333333;" parent="mezcCVU2EaI2xSkBNxZr-28" vertex="1">
                    <mxGeometry x="7.5" y="370" width="135" height="30" as="geometry"/>
                </mxCell>
                <mxCell id="mezcCVU2EaI2xSkBNxZr-40" style="edgeStyle=orthogonalEdgeStyle;rounded=1;orthogonalLoop=1;strokeColor=#FFFFFF;strokeWidth=7;" parent="mezcCVU2EaI2xSkBNxZr-2" edge="1">
                    <mxGeometry relative="1" as="geometry">
                        <Array as="points">
                            <mxPoint x="220" y="240"/>
                            <mxPoint x="435" y="240"/>
                        </Array>
                        <mxPoint x="220" y="240" as="sourcePoint"/>
                        <mxPoint x="435" y="270" as="targetPoint"/>
                    </mxGeometry>
                </mxCell>
                <mxCell id="mezcCVU2EaI2xSkBNxZr-41" value="Prospect &amp;amp; Find" style="edgeLabel;html=1;align=center;verticalAlign=middle;resizable=0;points=[];rounded=1;" parent="mezcCVU2EaI2xSkBNxZr-40" vertex="1" connectable="0">
                    <mxGeometry x="-0.1393" y="4" relative="1" as="geometry">
                        <mxPoint as="offset"/>
                    </mxGeometry>
                </mxCell>
                <mxCell id="0tEVj9B9houRm8hwRuAO-13" style="edgeStyle=orthogonalEdgeStyle;rounded=1;orthogonalLoop=1;strokeColor=#FFFFFF;strokeWidth=7;fontSize=9;" parent="mezcCVU2EaI2xSkBNxZr-2" edge="1">
                    <mxGeometry relative="1" as="geometry">
                        <Array as="points">
                            <mxPoint x="440" y="250"/>
                            <mxPoint x="440" y="240"/>
                            <mxPoint x="735" y="240"/>
                        </Array>
                        <mxPoint x="440" y="250" as="sourcePoint"/>
                        <mxPoint x="735" y="270" as="targetPoint"/>
                    </mxGeometry>
                </mxCell>
                <mxCell id="0tEVj9B9houRm8hwRuAO-14" value="&lt;font style=&quot;font-size: 9px;&quot;&gt;Each Foundry could build&amp;nbsp;&lt;br&gt;&lt;span style=&quot;background-color: light-dark(#ffffff, var(--ge-dark-color, #121212));&quot;&gt;Space&amp;nbsp;&lt;/span&gt;&lt;span style=&quot;background-color: light-dark(#ffffff, var(--ge-dark-color, #121212));&quot;&gt;Ships with max limit per &lt;br&gt;account and cannot be stolen&lt;/span&gt;&lt;/font&gt;" style="edgeLabel;html=1;align=center;verticalAlign=middle;resizable=0;points=[];rounded=1;" parent="0tEVj9B9houRm8hwRuAO-13" vertex="1" connectable="0">
                    <mxGeometry x="-0.1393" y="4" relative="1" as="geometry">
                        <mxPoint x="17" y="4" as="offset"/>
                    </mxGeometry>
                </mxCell>
                <mxCell id="mezcCVU2EaI2xSkBNxZr-42" value="Silver Withdraw for Player&#xa; ScoreBoard" style="hexagon;fillColor=#dae8fc;strokeColor=#6c8ebf;rounded=1;" parent="mezcCVU2EaI2xSkBNxZr-1" vertex="1">
                    <mxGeometry x="-220" y="270" width="180" height="30" as="geometry"/>
                </mxCell>
                <mxCell id="mezcCVU2EaI2xSkBNxZr-43" value="Artifact portal &#xa;Game Contract &lt;&gt; Wallet" style="hexagon;fillColor=#dae8fc;strokeColor=#6c8ebf;rounded=1;" parent="mezcCVU2EaI2xSkBNxZr-1" vertex="1">
                    <mxGeometry x="-220" y="310" width="180" height="30" as="geometry"/>
                </mxCell>
                <mxCell id="mezcCVU2EaI2xSkBNxZr-44" style="edgeStyle=orthogonalEdgeStyle;rounded=1;orthogonalLoop=1;strokeColor=#FFFFFF;strokeWidth=7;entryX=1;entryY=0.5;entryDx=0;entryDy=0;exitX=0;exitY=0.5;exitDx=0;exitDy=0;" parent="mezcCVU2EaI2xSkBNxZr-1" source="mezcCVU2EaI2xSkBNxZr-9" target="mezcCVU2EaI2xSkBNxZr-42" edge="1">
                    <mxGeometry relative="1" as="geometry">
                        <Array as="points">
                            <mxPoint x="50" y="285"/>
                        </Array>
                        <mxPoint x="50" y="245" as="sourcePoint"/>
                        <mxPoint x="455" y="190" as="targetPoint"/>
                    </mxGeometry>
                </mxCell>
                <mxCell id="mezcCVU2EaI2xSkBNxZr-45" value="Artifacts" style="group;rounded=1;fontColor=#FFFFFF;fontSize=19;spacingTop=-20;" parent="mezcCVU2EaI2xSkBNxZr-1" vertex="1">
                    <mxGeometry x="420" y="240" width="200" height="570" as="geometry"/>
                </mxCell>
                <mxCell id="mezcCVU2EaI2xSkBNxZr-46" value="#5 Wormhole" style="hexagon;fillColor=#d0cee2;strokeColor=#56517e;rounded=1;fontSize=12;" parent="mezcCVU2EaI2xSkBNxZr-45" vertex="1">
                    <mxGeometry x="10" y="90" width="180" height="30" as="geometry"/>
                </mxCell>
                <mxCell id="mezcCVU2EaI2xSkBNxZr-47" value="#4 Bloom Filter" style="hexagon;fillColor=#d0cee2;strokeColor=#56517e;rounded=1;" parent="mezcCVU2EaI2xSkBNxZr-45" vertex="1">
                    <mxGeometry x="10" y="50" width="180" height="30" as="geometry"/>
                </mxCell>
                <mxCell id="mezcCVU2EaI2xSkBNxZr-48" value="#6 Photoid Cannon" style="hexagon;fillColor=#d0cee2;strokeColor=#56517e;rounded=1;" parent="mezcCVU2EaI2xSkBNxZr-45" vertex="1">
                    <mxGeometry x="10" y="130" width="180" height="30" as="geometry"/>
                </mxCell>
                <mxCell id="mezcCVU2EaI2xSkBNxZr-49" value="#1 Pink Bomb" style="hexagon;fillColor=#d0cee2;strokeColor=#56517e;rounded=1;" parent="mezcCVU2EaI2xSkBNxZr-45" vertex="1">
                    <mxGeometry x="10" y="10" width="180" height="30" as="geometry"/>
                </mxCell>
                <mxCell id="mezcCVU2EaI2xSkBNxZr-50" value="Rarity" style="group;rounded=1;spacingTop=-20;fontColor=light-dark(#ffffff, #ededed);strokeWidth=5;fontSize=19;" parent="mezcCVU2EaI2xSkBNxZr-45" vertex="1">
                    <mxGeometry x="10" y="190" width="180" height="200" as="geometry"/>
                </mxCell>
                <mxCell id="mezcCVU2EaI2xSkBNxZr-51" value="#1 Common" style="hexagon;fillColor=#d0cee2;strokeColor=#56517e;rounded=1;" parent="mezcCVU2EaI2xSkBNxZr-50" vertex="1">
                    <mxGeometry x="9" y="10" width="162" height="30" as="geometry"/>
                </mxCell>
                <mxCell id="mezcCVU2EaI2xSkBNxZr-52" value="#2 Rare" style="hexagon;fillColor=#d0cee2;strokeColor=#56517e;rounded=1;" parent="mezcCVU2EaI2xSkBNxZr-50" vertex="1">
                    <mxGeometry x="9" y="50" width="162" height="30" as="geometry"/>
                </mxCell>
                <mxCell id="mezcCVU2EaI2xSkBNxZr-53" value="#3 Epic" style="hexagon;fillColor=#d0cee2;strokeColor=#56517e;rounded=1;" parent="mezcCVU2EaI2xSkBNxZr-50" vertex="1">
                    <mxGeometry x="9" y="90" width="162" height="30" as="geometry"/>
                </mxCell>
                <mxCell id="mezcCVU2EaI2xSkBNxZr-54" value="#4 Legendary" style="hexagon;fillColor=#d0cee2;strokeColor=#56517e;rounded=1;" parent="mezcCVU2EaI2xSkBNxZr-50" vertex="1">
                    <mxGeometry x="9" y="130" width="162" height="30" as="geometry"/>
                </mxCell>
                <mxCell id="mezcCVU2EaI2xSkBNxZr-55" value="#5 Mythic" style="hexagon;fillColor=#d0cee2;strokeColor=#56517e;rounded=1;" parent="mezcCVU2EaI2xSkBNxZr-50" vertex="1">
                    <mxGeometry x="9" y="170" width="162" height="30" as="geometry"/>
                </mxCell>
                <mxCell id="mezcCVU2EaI2xSkBNxZr-56" value="Guilds" style="swimlane;fontStyle=0;childLayout=stackLayout;horizontal=1;startSize=30;horizontalStack=0;resizeParent=1;resizeParentMax=0;resizeLast=0;collapsible=1;marginBottom=0;whiteSpace=wrap;html=1;" parent="mezcCVU2EaI2xSkBNxZr-1" vertex="1">
                    <mxGeometry x="390" width="140" height="140" as="geometry"/>
                </mxCell>
                <mxCell id="mezcCVU2EaI2xSkBNxZr-57" value="Grant Role Delegation&amp;nbsp;" style="text;strokeColor=none;fillColor=none;align=left;verticalAlign=middle;spacingLeft=4;spacingRight=4;overflow=hidden;points=[[0,0.5],[1,0.5]];portConstraint=eastwest;rotatable=0;whiteSpace=wrap;html=1;fontColor=light-dark(#ffffff, #ededed);" parent="mezcCVU2EaI2xSkBNxZr-56" vertex="1">
                    <mxGeometry y="30" width="140" height="30" as="geometry"/>
                </mxCell>
                <mxCell id="mezcCVU2EaI2xSkBNxZr-58" value="Transfere Ownership" style="text;strokeColor=none;fillColor=none;align=left;verticalAlign=middle;spacingLeft=4;spacingRight=4;overflow=hidden;points=[[0,0.5],[1,0.5]];portConstraint=eastwest;rotatable=0;whiteSpace=wrap;html=1;fontColor=light-dark(#ffffff, #ededed);" parent="mezcCVU2EaI2xSkBNxZr-56" vertex="1">
                    <mxGeometry y="60" width="140" height="30" as="geometry"/>
                </mxCell>
                <mxCell id="mezcCVU2EaI2xSkBNxZr-59" value="Without Guild extension about total members limited by Guild lvl" style="text;strokeColor=none;fillColor=none;align=left;verticalAlign=middle;spacingLeft=4;spacingRight=4;overflow=hidden;points=[[0,0.5],[1,0.5]];portConstraint=eastwest;rotatable=0;whiteSpace=wrap;html=1;fontColor=light-dark(#ffffff, #ededed);" parent="mezcCVU2EaI2xSkBNxZr-56" vertex="1">
                    <mxGeometry y="90" width="140" height="50" as="geometry"/>
                </mxCell>
                <mxCell id="mezcCVU2EaI2xSkBNxZr-60" value="AI Sophons" style="swimlane;fontStyle=0;childLayout=stackLayout;horizontal=1;startSize=30;horizontalStack=0;resizeParent=1;resizeParentMax=0;resizeLast=0;collapsible=1;marginBottom=0;whiteSpace=wrap;html=1;" parent="mezcCVU2EaI2xSkBNxZr-1" vertex="1">
                    <mxGeometry x="570" width="140" height="120" as="geometry"/>
                </mxCell>
                <mxCell id="mezcCVU2EaI2xSkBNxZr-61" value="AI Assistant - chatbot" style="text;strokeColor=none;fillColor=none;align=left;verticalAlign=middle;spacingLeft=4;spacingRight=4;overflow=hidden;points=[[0,0.5],[1,0.5]];portConstraint=eastwest;rotatable=0;whiteSpace=wrap;html=1;fontColor=light-dark(#ffffff, #ededed);" parent="mezcCVU2EaI2xSkBNxZr-60" vertex="1">
                    <mxGeometry y="30" width="140" height="30" as="geometry"/>
                </mxCell>
                <mxCell id="mezcCVU2EaI2xSkBNxZr-62" value="AI Agent - Client Requesting with selected planets and wait for json format answer - client executor" style="text;strokeColor=none;fillColor=none;align=left;verticalAlign=middle;spacingLeft=4;spacingRight=4;overflow=hidden;points=[[0,0.5],[1,0.5]];portConstraint=eastwest;rotatable=0;whiteSpace=wrap;html=1;fontColor=light-dark(#ffffff, #ededed);" parent="mezcCVU2EaI2xSkBNxZr-60" vertex="1">
                    <mxGeometry y="60" width="140" height="60" as="geometry"/>
                </mxCell>
                <mxCell id="mezcCVU2EaI2xSkBNxZr-63" value="Future Functions proposal 9stx6&lt;br&gt;&amp;nbsp;DarkForest_MUD BASE ROUND&amp;nbsp;&lt;br&gt;DF_MUD V4" style="text;html=1;align=center;verticalAlign=middle;whiteSpace=wrap;rounded=0;fontColor=light-dark(#ffffff, #ededed);fontSize=22;fontStyle=1" parent="mezcCVU2EaI2xSkBNxZr-1" vertex="1">
                    <mxGeometry x="10" y="-160" width="700" height="80" as="geometry"/>
                </mxCell>
                <mxCell id="0tEVj9B9houRm8hwRuAO-0" value="SpaceShips Artifacts" style="group;rounded=1;fontColor=#FFFFFF;fontSize=19;spacingTop=-20;" parent="mezcCVU2EaI2xSkBNxZr-1" vertex="1">
                    <mxGeometry x="854" y="260" width="200" height="200" as="geometry"/>
                </mxCell>
                <mxCell id="0tEVj9B9houRm8hwRuAO-1" value="Biome" style="hexagon;fillColor=#e1d5e7;strokeColor=#9673a6;rounded=1;fontSize=12;" parent="0tEVj9B9houRm8hwRuAO-0" vertex="1">
                    <mxGeometry x="10" y="10" width="180" height="30" as="geometry"/>
                </mxCell>
                <mxCell id="0tEVj9B9houRm8hwRuAO-2" value="Rarity = foundry.planetLevel" style="hexagon;fillColor=#e1d5e7;strokeColor=#9673a6;rounded=1;" parent="0tEVj9B9houRm8hwRuAO-0" vertex="1">
                    <mxGeometry x="10" y="50" width="180" height="30" as="geometry"/>
                </mxCell>
                <mxCell id="0tEVj9B9houRm8hwRuAO-3" value="Exp. = 0" style="hexagon;fillColor=#e1d5e7;strokeColor=#9673a6;rounded=1;" parent="0tEVj9B9houRm8hwRuAO-0" vertex="1">
                    <mxGeometry x="10" y="90" width="180" height="30" as="geometry"/>
                </mxCell>
                <mxCell id="0tEVj9B9houRm8hwRuAO-4" value="Lvl. = 0" style="hexagon;fillColor=#e1d5e7;strokeColor=#9673a6;rounded=1;" parent="0tEVj9B9houRm8hwRuAO-0" vertex="1">
                    <mxGeometry x="10" y="130" width="180" height="30" as="geometry"/>
                </mxCell>
                <mxCell id="0tEVj9B9houRm8hwRuAO-5" value="Modules []" style="hexagon;fillColor=#e1d5e7;strokeColor=#9673a6;rounded=1;" parent="0tEVj9B9houRm8hwRuAO-0" vertex="1">
                    <mxGeometry x="10" y="170" width="180" height="30" as="geometry"/>
                </mxCell>
                <mxCell id="0tEVj9B9houRm8hwRuAO-6" value="SpaceShips" style="group;rounded=1;fontColor=#FFFFFF;fontSize=19;spacingTop=-20;" parent="mezcCVU2EaI2xSkBNxZr-1" vertex="1">
                    <mxGeometry x="644" y="260" width="200" height="200" as="geometry"/>
                </mxCell>
                <mxCell id="0tEVj9B9houRm8hwRuAO-7" value="ShipMothership" style="hexagon;fillColor=#e1d5e7;strokeColor=#9673a6;rounded=1;fontSize=12;" parent="0tEVj9B9houRm8hwRuAO-6" vertex="1">
                    <mxGeometry x="10" y="10" width="180" height="30" as="geometry"/>
                </mxCell>
                <mxCell id="0tEVj9B9houRm8hwRuAO-8" value="ShipCrescent" style="hexagon;fillColor=#e1d5e7;strokeColor=#9673a6;rounded=1;" parent="0tEVj9B9houRm8hwRuAO-6" vertex="1">
                    <mxGeometry x="10" y="50" width="180" height="30" as="geometry"/>
                </mxCell>
                <mxCell id="0tEVj9B9houRm8hwRuAO-9" value="ShipWhale" style="hexagon;fillColor=#e1d5e7;strokeColor=#9673a6;rounded=1;" parent="0tEVj9B9houRm8hwRuAO-6" vertex="1">
                    <mxGeometry x="10" y="90" width="180" height="30" as="geometry"/>
                </mxCell>
                <mxCell id="0tEVj9B9houRm8hwRuAO-10" value="ShipGear" style="hexagon;fillColor=#e1d5e7;strokeColor=#9673a6;rounded=1;" parent="0tEVj9B9houRm8hwRuAO-6" vertex="1">
                    <mxGeometry x="10" y="130" width="180" height="30" as="geometry"/>
                </mxCell>
                <mxCell id="0tEVj9B9houRm8hwRuAO-11" value="ShipTitan" style="hexagon;fillColor=#e1d5e7;strokeColor=#9673a6;rounded=1;" parent="0tEVj9B9houRm8hwRuAO-6" vertex="1">
                    <mxGeometry x="10" y="170" width="180" height="30" as="geometry"/>
                </mxCell>
                <mxCell id="0tEVj9B9houRm8hwRuAO-12" value="&lt;b&gt;Modules&lt;/b&gt;:&lt;div&gt;Attack / Deffense / Explore - minigame? = each lvl 1*rarity lvl%&lt;/div&gt;" style="shape=callout;whiteSpace=wrap;html=1;perimeter=calloutPerimeter;rounded=1;position2=0;" parent="mezcCVU2EaI2xSkBNxZr-1" vertex="1">
                    <mxGeometry x="1064" y="340" width="120" height="110" as="geometry"/>
                </mxCell>
                <mxCell id="0tEVj9B9houRm8hwRuAO-15" value="Biome" style="hexagon;fillColor=#e1d5e7;strokeColor=#9673a6;rounded=1;fontSize=12;" parent="mezcCVU2EaI2xSkBNxZr-1" vertex="1">
                    <mxGeometry x="654" y="530" width="180" height="30" as="geometry"/>
                </mxCell>
                <mxCell id="0tEVj9B9houRm8hwRuAO-16" value="Rarity = foundry.planetLevel" style="hexagon;fillColor=#e1d5e7;strokeColor=#9673a6;rounded=1;" parent="mezcCVU2EaI2xSkBNxZr-1" vertex="1">
                    <mxGeometry x="654" y="570" width="180" height="30" as="geometry"/>
                </mxCell>
                <mxCell id="0tEVj9B9houRm8hwRuAO-17" value="Special movement " style="hexagon;fillColor=#e1d5e7;strokeColor=#9673a6;rounded=1;whiteSpace=wrap;" parent="mezcCVU2EaI2xSkBNxZr-1" vertex="1">
                    <mxGeometry x="654" y="610" width="180" height="30" as="geometry"/>
                </mxCell>
                <mxCell id="0tEVj9B9houRm8hwRuAO-18" style="edgeStyle=orthogonalEdgeStyle;rounded=1;orthogonalLoop=1;strokeColor=#FFFFFF;strokeWidth=7;" parent="mezcCVU2EaI2xSkBNxZr-1" edge="1">
                    <mxGeometry relative="1" as="geometry">
                        <Array as="points">
                            <mxPoint x="744" y="210"/>
                            <mxPoint x="959" y="210"/>
                        </Array>
                        <mxPoint x="744" y="224.97000000000003" as="sourcePoint"/>
                        <mxPoint x="959" y="240" as="targetPoint"/>
                    </mxGeometry>
                </mxCell>
                <mxCell id="0tEVj9B9houRm8hwRuAO-19" value="Each foundry possible Hire only one&lt;br&gt;Artifacts SpaceShips:&lt;br&gt;could be stolen if lost battle" style="edgeLabel;html=1;align=center;verticalAlign=middle;resizable=0;points=[];rounded=1;" parent="0tEVj9B9houRm8hwRuAO-18" vertex="1" connectable="0">
                    <mxGeometry x="-0.1393" y="4" relative="1" as="geometry">
                        <mxPoint x="13" y="-6" as="offset"/>
                    </mxGeometry>
                </mxCell>
                <mxCell id="0tEVj9B9houRm8hwRuAO-20" value="Payable 0.001 ETH" style="text;html=1;align=center;verticalAlign=middle;whiteSpace=wrap;rounded=0;fontColor=light-dark(#fbf9f9, #ededed);" parent="mezcCVU2EaI2xSkBNxZr-1" vertex="1">
                    <mxGeometry x="560" y="140" width="60" height="30" as="geometry"/>
                </mxCell>
                <mxCell id="0tEVj9B9houRm8hwRuAO-21" value="&lt;b&gt;Special movement:&lt;/b&gt;&lt;div&gt;could be activated only on owned/enemy &lt;br&gt;planet according SpaceShip.type.&lt;/div&gt;&lt;div&gt;action could be instant or for block period.&lt;br&gt;Is limited with Rarity against planet.lvl requested to be activated.&lt;/div&gt;" style="shape=callout;whiteSpace=wrap;html=1;perimeter=calloutPerimeter;rounded=1;position2=0;fontSize=10;" parent="mezcCVU2EaI2xSkBNxZr-1" vertex="1">
                    <mxGeometry x="854" y="490" width="190" height="150" as="geometry"/>
                </mxCell>
                <mxCell id="Cp54JvuBWStm9_Zjne5U-0" value="Payable 0.0005 ETH" style="text;html=1;align=center;verticalAlign=middle;whiteSpace=wrap;rounded=0;fontColor=light-dark(#fbf9f9, #ededed);" parent="mezcCVU2EaI2xSkBNxZr-1" vertex="1">
                    <mxGeometry x="810" y="140" width="60" height="30" as="geometry"/>
                </mxCell>
                <mxCell id="g0gkAILmUiY8s9jfThsW-0" style="edgeStyle=orthogonalEdgeStyle;rounded=1;orthogonalLoop=1;strokeColor=#FFFFFF;strokeWidth=7;" parent="mezcCVU2EaI2xSkBNxZr-1" target="0tEVj9B9houRm8hwRuAO-12" edge="1">
                    <mxGeometry relative="1" as="geometry">
                        <Array as="points">
                            <mxPoint x="960" y="210"/>
                            <mxPoint x="1175" y="210"/>
                        </Array>
                        <mxPoint x="960" y="224.97000000000003" as="sourcePoint"/>
                        <mxPoint x="1175" y="240" as="targetPoint"/>
                    </mxGeometry>
                </mxCell>
                <mxCell id="g0gkAILmUiY8s9jfThsW-1" value="Each foundry possible Attach / Detach modules&lt;br&gt;for SpaceShip - in pane Artifact on owned foundry:&lt;br&gt;block period to mint , rarity per planet.planetLevel" style="edgeLabel;html=1;align=center;verticalAlign=middle;resizable=0;points=[];rounded=1;" parent="g0gkAILmUiY8s9jfThsW-0" vertex="1" connectable="0">
                    <mxGeometry x="-0.1393" y="4" relative="1" as="geometry">
                        <mxPoint x="13" y="-6" as="offset"/>
                    </mxGeometry>
                </mxCell>
                <mxCell id="g0gkAILmUiY8s9jfThsW-3" value="Payable 0.0001 ETH" style="text;html=1;align=center;verticalAlign=middle;whiteSpace=wrap;rounded=0;fontColor=light-dark(#fbf9f9, #ededed);" parent="mezcCVU2EaI2xSkBNxZr-1" vertex="1">
                    <mxGeometry x="1070" y="140" width="60" height="30" as="geometry"/>
                </mxCell>
                <mxCell id="ZpfYpr8kBdyZHgxmkl_x-0" value="Three.js" style="ellipse;fillColor=#DAE8FC;strokeColor=#6C8EBF;rounded=1;" parent="mezcCVU2EaI2xSkBNxZr-1" vertex="1">
                    <mxGeometry x="60" y="50" width="80" height="30" as="geometry"/>
                </mxCell>
            </root>
        </mxGraphModel>
    </diagram>
</mxfile>
